<svg xmlns="http://www.w3.org/2000/svg" viewBox="0 0 240 240">
  <rect width="240" height="240" fill="#0b1018"/>
  <rect x="25" y="85" width="190" height="80" rx="6" fill="#161e2c" stroke="#2d3f55" stroke-width="2"/>
  <g fill="#0e1622" stroke="#2d3f55" stroke-width="1">
    <rect x="35" y="95" width="14" height="14" rx="2"/><rect x="53" y="95" width="14" height="14" rx="2"/><rect x="71" y="95" width="14" height="14" rx="2"/>
    <rect x="89" y="95" width="14" height="14" rx="2"/><rect x="107" y="95" width="14" height="14" rx="2"/><rect x="125" y="95" width="14" height="14" rx="2"/>
    <rect x="143" y="95" width="14" height="14" rx="2"/><rect x="161" y="95" width="14" height="14" rx="2"/><rect x="179" y="95" width="14" height="14" rx="2"/>
    <rect x="35" y="113" width="14" height="14" rx="2"/><rect x="53" y="113" width="14" height="14" rx="2"/><rect x="71" y="113" width="14" height="14" rx="2"/>
    <rect x="89" y="113" width="14" height="14" rx="2"/><rect x="107" y="113" width="14" height="14" rx="2"/><rect x="125" y="113" width="14" height="14" rx="2"/>
    <rect x="143" y="113" width="14" height="14" rx="2"/><rect x="161" y="113" width="14" height="14" rx="2"/><rect x="179" y="113" width="14" height="14" rx="2"/>
    <rect x="35" y="131" width="50" height="14" rx="2"/><rect x="143" y="131" width="50" height="14" rx="2"/>
  </g>
  <g fill="#bf5fff" opacity="0.7">
    <rect x="89" y="131" width="50" height="4"/>
  </g>
  <text x="120" y="200" text-anchor="middle" fill="#3a4f6b" font-family="monospace" font-size="9">KEYBOARD</text>
</svg>
