<svg xmlns="http://www.w3.org/2000/svg" viewBox="0 0 240 240">
  <rect width="240" height="240" fill="#0b1018"/>
  <rect x="30" y="30" width="20" height="160" rx="3" fill="#161e2c" stroke="#2d3f55" stroke-width="2"/>
  <g stroke="#00bcd4" stroke-width="1" opacity="0.5">
    <line x1="34" y1="40" x2="46" y2="40"/><line x1="34" y1="50" x2="46" y2="50"/><line x1="34" y1="60" x2="46" y2="60"/>
    <line x1="34" y1="70" x2="46" y2="70"/><line x1="34" y1="80" x2="46" y2="80"/><line x1="34" y1="90" x2="46" y2="90"/>
  </g>
  <path d="M40,190 Q40,210 90,210 L150,210" stroke="#0a3a45" stroke-width="6" fill="none"/>
  <path d="M40,190 Q40,210 90,210 L150,210" stroke="#00bcd4" stroke-width="2" fill="none" opacity="0.6"/>
  <circle cx="150" cy="160" r="36" fill="#0e1622" stroke="#2d3f55" stroke-width="2"/>
  <circle cx="150" cy="160" r="36" fill="none" stroke="#39ff14" stroke-width="2" opacity="0.6"/>
  <circle cx="150" cy="160" r="14" fill="#1a2535"/>
  <path d="M150,210 Q150,190 150,160" stroke="#0a3a45" stroke-width="6" fill="none"/>
  <path d="M150,210 Q150,190 150,160" stroke="#00bcd4" stroke-width="2" fill="none" opacity="0.6"/>
  <text x="120" y="232" text-anchor="middle" fill="#3a4f6b" font-family="monospace" font-size="9">LIQUID AIO COOLER</text>
</svg>
