<svg xmlns="http://www.w3.org/2000/svg" viewBox="0 0 240 240">
  <rect width="240" height="240" fill="#0b1018"/>
  <rect x="20" y="70" width="200" height="90" rx="8" fill="#161e2c" stroke="#2d3f55" stroke-width="2"/>
  <rect x="20" y="70" width="200" height="22" rx="6" fill="#0e1622"/>
  <circle cx="65" cy="125" r="32" fill="#0e1622" stroke="#2d3f55" stroke-width="2"/>
  <circle cx="65" cy="125" r="32" fill="none" stroke="#00e5ff" stroke-width="1" opacity="0.5"/>
  <circle cx="155" cy="125" r="32" fill="#0e1622" stroke="#2d3f55" stroke-width="2"/>
  <circle cx="155" cy="125" r="32" fill="none" stroke="#00e5ff" stroke-width="1" opacity="0.5"/>
  <g stroke="#3a4f6b" stroke-width="1.5">
    <line x1="65" y1="100" x2="65" y2="150"/><line x1="40" y1="125" x2="90" y2="125"/>
    <line x1="155" y1="100" x2="155" y2="150"/><line x1="130" y1="125" x2="180" y2="125"/>
  </g>
  <rect x="195" y="160" width="30" height="18" rx="2" fill="#161e2c" stroke="#2d3f55" stroke-width="1.5"/>
  <rect x="200" y="164" width="6" height="10" fill="#39ff14"/>
  <rect x="210" y="164" width="6" height="10" fill="#39ff14"/>
  <rect x="30" y="160" width="190" height="10" rx="3" fill="#1a2535"/>
  <text x="120" y="50" text-anchor="middle" fill="#5a7a9a" font-family="monospace" font-size="14" letter-spacing="2">GPU</text>
  <text x="120" y="200" text-anchor="middle" fill="#3a4f6b" font-family="monospace" font-size="9">GRAPHICS CARD</text>
</svg>
