<svg xmlns="http://www.w3.org/2000/svg" viewBox="0 0 240 240">
  <rect width="240" height="240" fill="#0b1018"/>
  <rect x="60" y="40" width="120" height="20" rx="3" fill="#1a2535" stroke="#2d3f55" stroke-width="1.5"/>
  <g stroke="#2d3f55" stroke-width="2" fill="#161e2c">
    <rect x="60" y="60" width="120" height="6"/><rect x="60" y="72" width="120" height="6"/>
    <rect x="60" y="84" width="120" height="6"/><rect x="60" y="96" width="120" height="6"/>
    <rect x="60" y="108" width="120" height="6"/><rect x="60" y="120" width="120" height="6"/>
    <rect x="60" y="132" width="120" height="6"/><rect x="60" y="144" width="120" height="6"/>
  </g>
  <g stroke="#c9a227" stroke-width="2.5">
    <line x1="80" y1="40" x2="80" y2="150"/><line x1="120" y1="40" x2="120" y2="150"/><line x1="160" y1="40" x2="160" y2="150"/>
  </g>
  <circle cx="120" cy="180" r="28" fill="#0e1622" stroke="#00e5ff" stroke-width="2" opacity="0.8"/>
  <circle cx="120" cy="180" r="14" fill="#1a2535"/>
  <g stroke="#00e5ff" stroke-width="1.5" opacity="0.6">
    <line x1="120" y1="160" x2="120" y2="170"/><line x1="120" y1="190" x2="120" y2="200"/>
    <line x1="100" y1="180" x2="110" y2="180"/><line x1="130" y1="180" x2="140" y2="180"/>
  </g>
  <text x="120" y="215" text-anchor="middle" fill="#3a4f6b" font-family="monospace" font-size="9">AIR COOLER</text>
</svg>
