<svg xmlns="http://www.w3.org/2000/svg" viewBox="0 0 240 240">
  <rect width="240" height="240" fill="#0b1018"/>
  <rect x="50" y="40" width="30" height="160" rx="3" fill="#161e2c" stroke="#2d3f55" stroke-width="2"/>
  <rect x="100" y="40" width="30" height="160" rx="3" fill="#161e2c" stroke="#2d3f55" stroke-width="2"/>
  <rect x="150" y="40" width="30" height="160" rx="3" fill="#161e2c" stroke="#2d3f55" stroke-width="2"/>
  <g fill="#bf5fff" opacity="0.85">
    <rect x="55" y="40" width="20" height="6"/><rect x="105" y="40" width="20" height="6"/><rect x="155" y="40" width="20" height="6"/>
  </g>
  <g stroke="#3a4f6b" stroke-width="1">
    <line x1="56" y1="60" x2="74" y2="60"/><line x1="56" y1="75" x2="74" y2="75"/><line x1="56" y1="90" x2="74" y2="90"/>
    <line x1="106" y1="60" x2="124" y2="60"/><line x1="106" y1="75" x2="124" y2="75"/><line x1="106" y1="90" x2="124" y2="90"/>
    <line x1="156" y1="60" x2="174" y2="60"/><line x1="156" y1="75" x2="174" y2="75"/><line x1="156" y1="90" x2="174" y2="90"/>
  </g>
  <g fill="#c9a227">
    <rect x="50" y="192" width="30" height="8"/><rect x="100" y="192" width="30" height="8"/><rect x="150" y="192" width="30" height="8"/>
  </g>
  <text x="120" y="220" text-anchor="middle" fill="#3a4f6b" font-family="monospace" font-size="9">RAM MODULES</text>
</svg>
